<svg xmlns="http://www.w3.org/2000/svg" xmlns:xlink="http://www.w3.org/1999/xlink" xml:space="preserve" version="1.1" style="shape-rendering:geometricPrecision;text-rendering:geometricPrecision;image-rendering:optimizeQuality;" viewBox="0 0 214 371.25" x="0px" y="0px" fill-rule="evenodd" clip-rule="evenodd"><defs><style type="text/css">
   
    .fil0 {fill:black}
   
  </style></defs><g><path class="fil0" d="M14 19c0,-8 0,-19 12,-19l162 0c12,0 12,11 12,19 7,0 14,2 14,11l0 22c0,6 -5,11 -11,11l-192 0c-6,0 -11,-5 -11,-11l0 -22c0,-9 7,-11 14,-11z"/><path class="fil0" d="M186 167l-11 107c-1,12 -10,23 -23,23l-90 0c-13,0 -22,-11 -23,-23l-11 -107 33 0c2,23 22,41 46,41 24,0 44,-18 46,-41l33 0z"/><path class="fil0" d="M196 69l-9 87 -34 0c-2,-23 -22,-41 -46,-41 -24,0 -44,18 -46,41l-34 0 -9 -87 178 0z"/><path class="fil0" d="M142 160c-1,17 -29,21 -35,6 14,3 16,0 19,-4 2,-3 5,-7 16,-2z"/><path class="fil0" d="M142 157c-12,-5 -15,-1 -18,3 -2,3 -4,6 -17,2 0,-17 31,-21 35,-5z"/><path class="fil0" d="M108 133c8,13 -11,32 -24,24 12,-5 12,-10 12,-14 0,-3 0,-8 12,-10z"/><path class="fil0" d="M106 131c-12,3 -12,7 -12,12 -1,3 0,7 -12,11 -10,-13 12,-34 24,-23z"/><path class="fil0" d="M109 186c-7,13 -32,7 -32,-8 10,7 14,5 17,3 3,-1 7,-4 15,5z"/><path class="fil0" d="M109 183c-8,-8 -12,-6 -15,-4 -4,1 -6,3 -16,-4 6,-15 34,-7 31,8z"/></g><text x="0" y="312" fill="#000000" font-size="5px" font-weight="bold" font-family="'Helvetica Neue', Helvetica, Arial-Unicode, Arial, Sans-serif">Created by yasminvisible</text><text x="0" y="317" fill="#000000" font-size="5px" font-weight="bold" font-family="'Helvetica Neue', Helvetica, Arial-Unicode, Arial, Sans-serif">from the Noun Project</text></svg>