<svg xmlns="http://www.w3.org/2000/svg" xmlns:xlink="http://www.w3.org/1999/xlink" xml:space="preserve" version="1.1" style="shape-rendering:geometricPrecision;text-rendering:geometricPrecision;image-rendering:optimizeQuality;" viewBox="0 0 108.26 145.875" x="0px" y="0px" fill-rule="evenodd" clip-rule="evenodd"><defs><style type="text/css">
   
    .fil0 {fill:black}
   
  </style></defs><g><path class="fil0" d="M16.41 58.62c27.06,0 44.61,0 71.67,0 3.54,0 4.4,2.71 3.42,5.61l-0.7 2.07c0.28,-0.02 0.55,-0.02 0.83,-0.02 9.18,0 16.62,7.44 16.62,16.62 0,9.18 -7.44,16.62 -16.62,16.62 -4.08,0 -7.82,-1.47 -10.71,-3.91l-0.48 1.43c-1.64,4.88 -5,9.35 -10.15,9.35l34.18 0c0,3.93 -1.34,4.74 -4.72,4.74l-16.78 0c0,3.67 -3.3,5.55 -6.58,5.55l-48.31 0c-3.28,0 -6.58,-1.88 -6.58,-5.55l-16.78 0c-3.38,0 -4.72,-0.81 -4.72,-4.74l34.18 0c-5.14,0 -8.5,-4.48 -10.15,-9.35l-11.05 -32.82c-0.98,-2.9 -0.12,-5.61 3.43,-5.61zm24.82 -37.71c-4.37,7.57 20.78,20.94 9.54,32.17 2.8,-10.43 -19.4,-22.32 -9.54,-32.17zm4.03 -20.91c-7.21,12.49 34.28,34.54 15.74,53.09 4.61,-17.21 -32,-36.82 -15.74,-53.09zm42.95 74.04l-4.66 13.85c1.67,2.72 4.68,4.53 8.1,4.53 5.25,0 9.51,-4.26 9.51,-9.51 0,-5.25 -4.26,-9.51 -9.51,-9.51 -1.21,0 -2.37,0.23 -3.44,0.64zm-71.87 -9.98l10.82 31.95c1.04,3.09 3.29,7.12 7.03,7.12l4.12 0c-1.99,-1.45 -3.3,-4.19 -4.03,-6.45l-10.82 -33.53c-0.16,-0.49 -0.17,-0.9 -0.09,-1.23l-5.94 0c-0.71,0 -1.57,0.72 -1.09,2.15z"/></g><text x="0" y="131.7" fill="#000000" font-size="5px" font-weight="bold" font-family="'Helvetica Neue', Helvetica, Arial-Unicode, Arial, Sans-serif">Created by Mariyani</text><text x="0" y="136.7" fill="#000000" font-size="5px" font-weight="bold" font-family="'Helvetica Neue', Helvetica, Arial-Unicode, Arial, Sans-serif">from the Noun Project</text></svg>